<svg xmlns="http://www.w3.org/2000/svg" width="160" height="160" viewBox="0 0 160 160" fill="none">
  <path d="M144.354 36.0938C146.079 36.0938 147.479 37.4937 147.479 39.2188C147.479 40.9437 146.079 42.3438 144.354 42.3438C142.629 42.3438 141.229 40.9437 141.229 39.2188C141.229 37.4937 142.629 36.0938 144.354 36.0938Z" fill="#94D4FF"/>
  <path d="M144.354 117.344C146.079 117.344 147.479 118.744 147.479 120.469C147.479 122.194 146.079 123.594 144.354 123.594C142.629 123.594 141.229 122.194 141.229 120.469C141.229 118.744 142.629 117.344 144.354 117.344Z" fill="#94D4FF"/>
  <path d="M128.729 136.094C132.182 136.094 134.979 138.891 134.979 142.344C134.979 145.797 132.182 148.594 128.729 148.594C125.275 148.594 122.479 145.797 122.479 142.344C122.479 138.891 125.275 136.094 128.729 136.094Z" fill="#3256C1"/>
  <path d="M122.479 7.96875C124.204 7.96875 125.604 9.36875 125.604 11.0938C125.604 12.8187 124.204 14.2188 122.479 14.2188C120.754 14.2188 119.354 12.8187 119.354 11.0938C119.354 9.36875 120.754 7.96875 122.479 7.96875Z" fill="#94D4FF"/>
  <path d="M78.7285 17.3438C44.2098 17.3438 16.2285 45.325 16.2285 79.8438C16.2285 114.363 44.2098 142.344 78.7285 142.344C113.247 142.344 141.229 114.363 141.229 79.8438C141.229 45.325 113.247 17.3438 78.7285 17.3438Z" fill="#FFD400"/>
  <path d="M78.7285 126.719C52.841 126.719 31.8535 105.731 31.8535 79.8438C31.8535 53.9563 52.841 32.9688 78.7285 32.9688C104.616 32.9688 125.604 53.9563 125.604 79.8438C125.604 105.731 104.616 126.719 78.7285 126.719Z" fill="#07CC66"/>
  <path d="M101.963 65.0687C104.404 67.5094 104.404 71.4656 101.963 73.9062L79.8657 96.0062L71.0282 104.844L62.1876 96.0062L55.5595 89.375C54.341 88.1562 53.7285 86.5562 53.7285 84.9562C53.7285 83.3562 54.341 81.7562 55.5595 80.5372C58.0004 78.0965 61.9566 78.0965 64.397 80.5372L71.0282 87.1653L93.1254 65.0687C94.3473 63.85 95.9441 63.2375 97.5441 63.2375C99.1441 63.2375 100.741 63.85 101.963 65.0687Z" fill="white"/>
  <path d="M31.8535 142.344C33.5785 142.344 34.9785 143.744 34.9785 145.469C34.9785 147.194 33.5785 148.594 31.8535 148.594C30.1282 148.594 28.7285 147.194 28.7285 145.469C28.7285 143.744 30.1282 142.344 31.8535 142.344Z" fill="#94D4FF"/>
  <path d="M24.041 14.2188C28.3566 14.2188 31.8535 17.7156 31.8535 22.0312C31.8535 26.3469 28.3566 29.8438 24.041 29.8438C19.7251 29.8438 16.2285 26.3469 16.2285 22.0312C16.2285 17.7156 19.7251 14.2188 24.041 14.2188Z" fill="#3256C1"/>
  <path d="M13.1035 39.2188C14.8285 39.2188 16.2285 40.6187 16.2285 42.3438C16.2285 44.0687 14.8285 45.4688 13.1035 45.4688C11.3782 45.4688 9.97852 44.0687 9.97852 42.3438C9.97852 40.6187 11.3782 39.2188 13.1035 39.2188Z" fill="#94D4FF"/>
  <path d="M13.1035 117.344C14.8285 117.344 16.2285 118.744 16.2285 120.469C16.2285 122.194 14.8285 123.594 13.1035 123.594C11.3782 123.594 9.97852 122.194 9.97852 120.469C9.97852 118.744 11.3782 117.344 13.1035 117.344Z" fill="#94D4FF"/>
  <path d="M116.229 79.8438C116.229 78.1178 114.829 76.7188 113.104 76.7188C111.378 76.7188 109.979 78.1178 109.979 79.8438C109.979 97.0753 95.9601 111.094 78.7285 111.094C77.0026 111.094 75.6035 112.493 75.6035 114.219V126.613C76.6366 126.681 77.6782 126.719 78.7285 126.719C79.7788 126.719 80.8201 126.681 81.8535 126.613V117.215C101.074 115.621 116.229 99.4688 116.229 79.8438Z" fill="#D0DCE7"/>
  <path d="M41.2285 79.8438C41.2285 81.5694 42.6276 82.9688 44.3535 82.9688C46.0791 82.9688 47.4785 81.5694 47.4785 79.8438C47.4785 62.6125 61.497 48.5938 78.7285 48.5938C80.4541 48.5938 81.8535 47.1947 81.8535 45.4688V33.075C80.8201 33.0069 79.7788 32.9688 78.7285 32.9688C77.6782 32.9688 76.6366 33.0069 75.6035 33.075V42.4728C56.3829 44.0662 41.2285 60.2188 41.2285 79.8438Z" fill="#D0DCE7"/>
</svg>
